<svg fill="none" height="1024" viewBox="0 0 1024 1024" width="1024" xmlns="http://www.w3.org/2000/svg" xmlns:xlink="http://www.w3.org/1999/xlink"><clipPath id="a"><path d="m0 0h1024v1024h-1024z"/></clipPath><mask id="b" height="1024" maskUnits="userSpaceOnUse" width="1024" x="0" y="0"><rect fill="#d9d9d9" height="1024" rx="228" width="1024"/></mask><g clip-path="url(#a)"><g mask="url(#b)"><path d="m-86.5694 351.614c88.57812-330.5781 428.3744-526.762 758.9554-438.1832 330.574 88.57821 526.764 428.3772 438.184 758.9552-88.58 330.584-428.378 526.764-758.956 438.184-330.5811-88.58-526.762-428.375-438.1834-758.956z" stroke="#fff" stroke-linecap="round" stroke-linejoin="round" stroke-width="235"/><path d="m512 25c268.96 0 487 218.037 487 487 0 268.96-218.04 487-487 487-268.963 0-487-218.04-487-487 0-268.963 218.037-487 487-487z" stroke="#fff" stroke-linecap="round" stroke-linejoin="round" stroke-width="50"/><g fill="#fff"><path d="m606.445 194.251c-13.284-3.762-21.004-17.582-17.241-30.867 3.763-13.284 17.582-21.002 30.866-17.24 125.157 35.449 222.578 138.117 257.529 257.023 3.894 13.247-3.689 27.142-16.935 31.036-13.247 3.893-27.142-3.689-31.035-16.936-30.356-103.271-115.391-192.485-223.184-223.016z"/><path d="m842.925 532.051c.263-13.805 11.667-24.782 25.472-24.519 13.804.263 24.782 11.666 24.519 25.47-.065 3.43-.742 10.188-1.226 14.977-.595 5.89-1.078 10.447-1.174 11.854-.942 13.775-12.873 24.178-26.648 23.237-13.775-.942-24.178-12.872-23.236-26.647.169-2.483.819-8.594 1.31-13.467.27-2.67.524-5.245.712-7.379.095-1.067.166-1.953.215-2.644.055-.775.058-1.003.056-.882z"/><path d="m514.178 578.273c0-65.615 37.758-111.479 61.458-140.266 20.629-25.057 30.606-37.176-4.243-38.12-134.11-3.633-203.431 83.456-271.545 169.028-19.857 24.947-39.612 49.764-60.839 72.168-24.593.954-49.369 4.081-74.253 9.899-41.474 9.696-82.2797 26.601-122.39 52.238l39.8404 57.649c33.3846-21.004 66.2656-34.193 98.4836-41.725 92.801-21.695 187.733 1.494 287.81 37.217 24.822 8.86 49.59 18.343 74.594 27.947l3.708 1.425.009.003.014.006c23.661 9.089 47.56 18.271 71.32 26.851 49.908 18.023 100.852 34.019 151.604 41.832 30.658 4.72 61.605 6.515 92.555 3.882l41.566-78.621c-38.803 11.542-79.692 12.294-123.47 5.555-44.025-6.778-89.946-20.96-138.479-38.487-23.096-8.34-46.411-17.297-70.271-26.463l-3.456-1.328c-7.542-2.897-15.135-5.811-22.771-8.721-18.625-30.826-37.069-76.625-31.245-131.969z"/></g></g></g></svg>
