<svg fill="none" height="1024" viewBox="0 0 1024 1024" width="1024" xmlns="http://www.w3.org/2000/svg"><path clip-rule="evenodd" d="m796-.00000763c125.921 0 228 102.07900763 228 228.00000763v568c0 125.921-102.079 228-228 228h-568c-125.921 0-228-102.079-228-228v-568c.00000825-125.921 102.079-228.00000763 228-228.00000763zm-284 974.00000763c-170.63 0-319.656-92.502-399.666-230.093 23.072-11.497 45.875-19.507 68.356-24.763 92.801-21.695 187.733 1.494 287.81 37.217 24.822 8.86 49.59 18.343 74.594 27.947l3.708 1.425.009.003.014.006c23.661 9.089 47.56 18.271 71.32 26.851 49.908 18.023 100.852 34.019 151.604 41.832 15.633 2.407 31.342 4.053 47.087 4.74-81.349 71.487-188.031 114.835-304.836 114.835zm-430.1646-293.132c-20.5501-52.307-31.8354-109.27-31.8354-168.868 0-255.156 206.844-462 462-462 255.153 0 462 206.844 462 462 0 101.855-32.962 196.012-88.8 272.386-33.209 6.892-67.983 6.523-104.8.855-44.025-6.778-89.946-20.96-138.479-38.487-23.096-8.34-46.411-17.297-70.271-26.463l-3.456-1.328c-7.542-2.897-15.135-5.811-22.771-8.721-18.625-30.826-37.069-76.625-31.245-131.969 0-65.615 37.758-111.479 61.458-140.266 20.629-25.057 30.606-37.176-4.243-38.12-134.11-3.633-203.431 83.456-271.545 169.028-19.857 24.947-39.612 49.764-60.839 72.168-24.593.954-49.369 4.081-74.253 9.899-27.947 6.533-55.589 16.34-82.9206 29.886z" fill="#fff" fill-rule="evenodd"/></svg>
